<svg xmlns="http://www.w3.org/2000/svg" width="1200" height="800" viewBox="0 0 1200 800" role="img" aria-labelledby="title desc"><title id="title">Your domain. A clear path.</title><desc id="desc">Xem managed sending connects a verified sender to a durable queue, Amazon SES, and signed feedback.</desc><rect x="0" y="0" width="1200" height="800" rx="0" fill="#ffffef" stroke="none" stroke-width="2"/><text x="75" y="69" font-family="Arial, sans-serif" font-size="23" fill="#164b3f">xem / THE JOURNAL</text><text x="967" y="69" font-family="Arial, sans-serif" font-size="18" fill="#164b3f">BUILD NOTES</text><path d="M75 95L1125 95" fill="none" stroke="#164b3f40" stroke-width="3"/><text x="75" y="291" font-family="Georgia, serif" font-size="76" fill="#22251f">Your domain.</text><text x="75" y="382" font-family="Georgia, serif" font-size="76" fill="#22251f">A clear path.</text><text x="78" y="445" font-family="Arial, sans-serif" font-size="26" fill="#5c655b">Inside Xem managed SMTP</text><rect x="78" y="490" width="272" height="44" rx="22" fill="#e7d8fa" stroke="none" stroke-width="2"/><text x="99" y="519" font-family="Arial, sans-serif" font-size="18" fill="#5b3cc4">CUSTOM DOMAINS + SES</text><rect x="654" y="156" width="472" height="494" rx="36" fill="#e3e9d9" stroke="none" stroke-width="2"/><rect x="702" y="193" width="376" height="125" rx="16" fill="#ffffef" stroke="#164b3f" stroke-width="2"/><path d="M705 199L890 273L1074 199" fill="none" stroke="#164b3f" stroke-width="3"/><text x="744" y="300" font-family="Arial, sans-serif" font-size="23" fill="#164b3f">hello@example.com</text><path d="M890 322v28m-7-8 7 8 7-8" fill="none" stroke="#164b3f" stroke-width="3" stroke-linecap="round" stroke-linejoin="round"/><rect x="713" y="370" width="354" height="72" rx="16" fill="#edf09b" stroke="#164b3f" stroke-width="2"/><text x="746" y="415" font-family="Arial, sans-serif" font-size="27" fill="#22251f">Xem · durable outbox</text><path d="M890 450v28m-7-8 7 8 7-8" fill="none" stroke="#164b3f" stroke-width="3" stroke-linecap="round" stroke-linejoin="round"/><rect x="713" y="497" width="354" height="72" rx="16" fill="#5b3cc4" stroke="none" stroke-width="2"/><text x="789" y="542" font-family="Arial, sans-serif" font-size="28" fill="#ffffef">Amazon SES</text><path d="M713 534H680V614H744m-8-6 8 6-8 6" fill="none" stroke="#5b3cc4" stroke-width="3" stroke-dasharray="7 6"/><text x="772" y="620" font-family="Arial, sans-serif" font-size="24" fill="#5b3cc4">Signed feedback</text><path d="M75 711L1125 711" fill="none" stroke="#164b3f40" stroke-width="3"/><text x="75" y="753" font-family="Arial, sans-serif" font-size="18" fill="#164b3f">DELIVERABILITY / OPEN SOURCE</text><text x="769" y="753" font-family="Arial, sans-serif" font-size="19" fill="#5c655b">Every email, a little more human.</text></svg>